<svg id="Layer_1" data-name="Layer 1" xmlns="http://www.w3.org/2000/svg" xmlns:xlink="http://www.w3.org/1999/xlink" width="84.0391" height="49.5556" viewBox="0 0 84.0391 49.5556"><defs><style>.cls-1{fill:#e6e7e8;}.cls-2{fill:#006e5b;}.cls-3{fill:url(#linear-gradient);}.cls-4{fill:url(#linear-gradient-2);}</style><linearGradient id="linear-gradient" x1="35.04" y1="1.9096" x2="38.063" y2="1.9096" gradientUnits="userSpaceOnUse"><stop offset="0.7317" stop-color="#a99632"/><stop offset="1" stop-color="#a99632"/></linearGradient><linearGradient id="linear-gradient-2" x1="28.6755" y1="18.2318" x2="46.0796" y2="18.2318" xlink:href="#linear-gradient"/></defs><path class="cls-1" d="M37.4178,4.8882a13.7964,13.7964,0,1,0,17.24,9.1367A13.7964,13.7964,0,0,0,37.4178,4.8882Zm6.7916,22.1076a9.3308,9.3308,0,1,1,6.1793-11.66A9.3309,9.3309,0,0,1,44.2094,26.9958Z"/><path class="cls-2" d="M46.5352,34.5663a17.2505,17.2505,0,1,0-10.1315-32.98l.1985.6463a16.5744,16.5744,0,1,1-10.9764,20.711l-.6472.1988A17.271,17.271,0,0,0,46.5352,34.5663Z"/><path class="cls-2" d="M49.8116,7.9481a.81.81,0,0,0,.076-.5412,13.6286,13.6286,0,0,0-4.2-2.2633.8115.8115,0,0,0-.444.3827l-.9648,1.7991A11.1287,11.1287,0,0,0,40.85,7.0213l-.0026-.0088L40.2507,5.07a1.3422,1.3422,0,0,0-.4793-.6878,16.66,16.66,0,0,0-2.3536.5057l1.3114,4.2688c2.5608-.6881,4.9292-.6121,6.8591.655a8.8693,8.8693,0,0,1,4.517,5.3131c.0272.09.0508.1819.0755.2733h0l0,.0013,0,.0014,0,0c.0308.0895.063.1789.0909.2685a8.87,8.87,0,0,1-.755,6.9328c-.8856,2.1321-3.1828,3.2756-5.3081,4.3936l1.3113,4.2687a16.8725,16.8725,0,0,0,2.2461-.91,1.3245,1.3245,0,0,0-.0042-.8313l-.5967-1.9423-.0027-.0089A11.13,11.13,0,0,0,49.83,25.3948l1.8084.9471a.8113.8113,0,0,0,.5823.0675,13.6277,13.6277,0,0,0,2.2047-4.2307.81.81,0,0,0-.3667-.4052l-1.7957-.9529-.0091-.0072a10.0838,10.0838,0,0,0,.3385-3.418l1.942-.5966a.7812.7812,0,0,0,.41-.2945,13.6233,13.6233,0,0,0-.4977-2.354c-.0058-.0187-.0126-.0368-.0185-.0554s-.01-.0375-.0158-.0563a13.6251,13.6251,0,0,0-.91-2.2275.7814.7814,0,0,0-.5046-.0134l-1.942.5966a10.08,10.08,0,0,0-2.199-2.6384l.0034-.0111Z"/><path class="cls-2" d="M11.37,41.1757a.51.51,0,0,0-.3652.1494.4841.4841,0,0,0-.1543.36.527.527,0,0,0,.52.52.4932.4932,0,0,0,.37-.1543.5111.5111,0,0,0,.15-.3653.4952.4952,0,0,0-.15-.36A.5036.5036,0,0,0,11.37,41.1757Z"/><path class="cls-2" d="M8.09,48.495a.5135.5135,0,0,0-.51.5108.5047.5047,0,0,0,.15.3642.4814.4814,0,0,0,.3593.1553.5306.5306,0,0,0,.5206-.52.482.482,0,0,0-.1553-.36A.5095.5095,0,0,0,8.09,48.495Z"/><path class="cls-2" d="M10.88,45.7655a.8881.8881,0,0,1-.9893,1.0195H8.87a.8749.8749,0,0,1-.99-.9892v-2.7l-.9395.2793v2.3906a.8929.8929,0,0,1-1,1.0195H4.92q-.98,0-.98-1.0195v-2.67H1.91q-1.91,0-1.91,2.22,0,2.29,1.91,2.29a1.4671,1.4671,0,0,0,1.47-.7q.31.7,1.49.7H6a1.8774,1.8774,0,0,0,1.42-.53,1.839,1.839,0,0,0,1.3906.53H9.94a1.8956,1.8956,0,0,0,1.37-.5,1.6816,1.6816,0,0,0,.51-1.27v-2.74l-.94.2793Zm-7.89-.45a2.1944,2.1944,0,0,1-.2,1.07.8509.8509,0,0,1-.82.3994.85.85,0,0,1-.8193-.3994,2.184,2.184,0,0,1-.2-1.07,2.0841,2.0841,0,0,1,.2-1.0595.8561.8561,0,0,1,.8193-.3907H2.99Z"/><path class="cls-2" d="M1.59,42.205a.51.51,0,0,0,.375-.1543.5.5,0,0,0,.1553-.3653.4847.4847,0,0,0-.1553-.36.5212.5212,0,0,0-.375-.1494.51.51,0,0,0-.3652.1494.4841.4841,0,0,0-.1543.36.5.5,0,0,0,.1543.3653A.4994.4994,0,0,0,1.59,42.205Z"/><path class="cls-2" d="M16.61,42.205a.4841.4841,0,0,0,.36-.1543.51.51,0,0,0,.1494-.3653.5215.5215,0,0,0-.1494-.375.485.485,0,0,0-.36-.1552.5.5,0,0,0-.3653.1552.5113.5113,0,0,0-.1553.375.5288.5288,0,0,0,.5206.52Z"/><polygon class="cls-2" points="83.818 41.155 82.869 41.455 82.869 47.605 83.818 47.605 83.818 41.155"/><path class="cls-2" d="M10.03,42.205a.4841.4841,0,0,0,.36-.1543.51.51,0,0,0,.1494-.3653.51.51,0,0,0-.51-.51.51.51,0,0,0-.3653.1494.4841.4841,0,0,0-.1543.36.527.527,0,0,0,.52.52Z"/><path class="cls-2" d="M6.75,48.495a.4888.4888,0,0,0-.3652.15.4982.4982,0,0,0-.1446.36.5047.5047,0,0,0,.15.3642.4816.4816,0,0,0,.3594.1553.5306.5306,0,0,0,.5205-.52.4817.4817,0,0,0-.1553-.36A.5094.5094,0,0,0,6.75,48.495Z"/><path class="cls-2" d="M2.94,42.205a.5288.5288,0,0,0,.52-.52.4851.4851,0,0,0-.1553-.36.5079.5079,0,0,0-.3643-.1494.5118.5118,0,0,0-.5107.51.5111.5111,0,0,0,.15.3653A.481.481,0,0,0,2.94,42.205Z"/><polygon class="cls-2" points="12.681 47.605 13.63 47.605 13.63 41.155 12.681 41.455 12.681 47.605"/><path class="cls-2" d="M80.2188,42.205a.4841.4841,0,0,0,.36-.1543.51.51,0,0,0,.1494-.3653.51.51,0,0,0-.51-.51.51.51,0,0,0-.3653.1494.4841.4841,0,0,0-.1543.36.527.527,0,0,0,.52.52Z"/><path class="cls-2" d="M81.0684,45.7655a.8881.8881,0,0,1-.9893,1.0195h-.51v-.0195l-.2.0195a1.1005,1.1005,0,0,1-1.23-.9794,2.1876,2.1876,0,0,0-.56-1.3,2.0511,2.0511,0,0,0-1.45-.45,1.8311,1.8311,0,0,0-2.02,1.75,1.0362,1.0362,0,0,1-1.19.96H72.02a.4289.4289,0,0,1-.49-.4805v-5.13l-.95.3v4.86a1.2834,1.2834,0,0,0,.3447.9405,1.31,1.31,0,0,0,.9756.35h1.0791a1.5659,1.5659,0,0,0,1.24-.5,1.6559,1.6559,0,0,0,.71.8847,2.238,2.238,0,0,0,1.2.3155,2.1694,2.1694,0,0,0,1.24-.3506,1.705,1.705,0,0,0,.7-.98,1.5989,1.5989,0,0,0,1.2891.6224v.0075h.77a1.8958,1.8958,0,0,0,1.37-.5,1.6816,1.6816,0,0,0,.51-1.27v-2.74l-.94.2793Zm-4.9395,1.74q-1.0605,0-1.06-1.33t1.06-1.33q1.05,0,1.05,1.33T76.1289,47.5058Z"/><path class="cls-2" d="M67.7988,43.0956h-2.36a2.5481,2.5481,0,0,0-1.59.41,1.9347,1.9347,0,0,0-.59,1.59V49.535l.95-.29V45.0956a1.0773,1.0773,0,0,1,.3193-.92,1.9569,1.9569,0,0,1,1.0908-.21h.54a2.6853,2.6853,0,0,0-.29,1.35,2.608,2.608,0,0,0,.4092,1.52,1.9717,1.9717,0,0,0,3.03,0,3.0031,3.0031,0,0,0,0-3.03A1.7227,1.7227,0,0,0,67.7988,43.0956Zm0,3.6094q-.98,0-.98-1.39t.98-1.39q.98,0,.98,1.39T67.7988,46.705Z"/><path class="cls-2" d="M59.8291,45.745q0,1.0211-.9795,1.0205h-.94a.862.862,0,0,1-.98-.97V41.1552l-.9492.3v4.29a.8887.8887,0,0,1-.99,1.0205h-1.75v-.34a4.9182,4.9182,0,0,0-.4-2.23,2.1726,2.1726,0,0,0-2.1-1.1,3.1088,3.1088,0,0,0-2.2.98l.68.63a2.0669,2.0669,0,0,1,1.52-.77,1.2845,1.2845,0,0,1,1.32.84,4.6971,4.6971,0,0,1,.21,1.65v.3593h-4.24v-.0195h-1.36v-1.95a1.5347,1.5347,0,0,0-.55-1.24,2.1457,2.1457,0,0,0-1.43-.47,2.0764,2.0764,0,0,0-1.3506.59v1.08a1.499,1.499,0,0,1,1.3506-.87q1.04,0,1.04.98V46.785H43.27l-.57.82h12.35a1.8251,1.8251,0,0,0,1.41-.54,1.84,1.84,0,0,0,1.3906.54h1.05a1.8956,1.8956,0,0,0,1.37-.5,1.7242,1.7242,0,0,0,.51-1.27v-4.66l-.95.2793Z"/><path class="cls-2" d="M39.9092,43.3153a1.7679,1.7679,0,0,0-1.5293.67,2.5037,2.5037,0,0,0-.41,1.48v.3193a.8753.8753,0,0,1-.98,1h-.14v-.0195H35.91a.4289.4289,0,0,1-.49-.4805v-5.13l-.95.3v4.86a1.2835,1.2835,0,0,0,.3448.9405,1.31,1.31,0,0,0,.9755.35h1.26a1.8856,1.8856,0,0,0,1.47-.53,1.8787,1.8787,0,0,0,1.39.53,1.7646,1.7646,0,0,0,1.52-.68,2.4141,2.4141,0,0,0,.41-1.46,2.5044,2.5044,0,0,0-.41-1.48A1.7606,1.7606,0,0,0,39.9092,43.3153Zm0,3.48q-.99,0-.9893-1.33,0-1.34.9893-1.3408.98,0,.98,1.3408Q40.89,46.7958,39.9092,46.7958Z"/><path class="cls-2" d="M83.249,49.205v-.1895c0-.2334.08-.3506.2393-.3506a.3112.3112,0,0,1,.27.15l.22-.28a.64.64,0,0,0-.46-.21q-.63,0-.63.69v.1895h-.29l-.21.3506h1.65V49.205Z"/><path class="cls-2" d="M81.5586,41.1757a.51.51,0,0,0-.3652.1494.4838.4838,0,0,0-.1543.36.527.527,0,0,0,.5195.52.4932.4932,0,0,0,.37-.1543.5111.5111,0,0,0,.15-.3653.4952.4952,0,0,0-.15-.36A.5036.5036,0,0,0,81.5586,41.1757Z"/><path class="cls-2" d="M32.68,45.785a.8753.8753,0,0,1-1,.9805H28.31a.87.87,0,0,1-.9893-.9805v-1.87l-.94.96v1.0107a1.6491,1.6491,0,0,0,.4951,1.2452,1.8061,1.8061,0,0,0,1.3047.4746h3.55a1.9518,1.9518,0,0,0,1.375-.4649,1.6233,1.6233,0,0,0,.5059-1.2549v-2.79l-.9307.25Z"/><path class="cls-2" d="M50.374,41.3251a.485.485,0,0,0-.1552.36.5.5,0,0,0,.1552.3653.51.51,0,0,0,.375.1543.5286.5286,0,0,0,.52-.52.485.485,0,0,0-.1552-.36.5088.5088,0,0,0-.3653-.1494A.5212.5212,0,0,0,50.374,41.3251Z"/><path class="cls-2" d="M21.14,45.745q0,1.0211-.9794,1.0205h-1.7v-1.95a1.535,1.535,0,0,0-.55-1.24,2.1462,2.1462,0,0,0-1.43-.47,2.0764,2.0764,0,0,0-1.3506.59v1.08a1.499,1.499,0,0,1,1.3506-.87q1.04,0,1.04.98V46.785h-2.46l-.57.82h5.72a1.8958,1.8958,0,0,0,1.37-.5,1.7245,1.7245,0,0,0,.51-1.27v-4.66l-.95.2793Z"/><polygon class="cls-2" points="22.95 47.605 23.899 47.605 23.899 41.155 22.95 41.455 22.95 47.605"/><path class="cls-2" d="M30.3145,42.8505a.5083.5083,0,0,0,0,.73.4884.4884,0,0,0,.3554.1552.51.51,0,0,0,.3653-.1494.523.523,0,0,0-.3653-.8906A.4885.4885,0,0,0,30.3145,42.8505Z"/><path class="cls-2" d="M28.97,42.8505a.5271.5271,0,0,0,0,.7353.4929.4929,0,0,0,.36.1494.51.51,0,0,0,.3652-.1494.523.523,0,0,0-.3652-.8906A.4837.4837,0,0,0,28.97,42.8505Z"/><path class="cls-3" d="M36.9323,3.3075a1.4624,1.4624,0,1,0-1.8274-.9684A1.4623,1.4623,0,0,0,36.9323,3.3075Z"/><path class="cls-4" d="M44.2186,27.0257l-.0472-.02A9.33,9.33,0,0,1,38.7292,9.1569L37.5154,5.2058l-1.86,4.169a1.6735,1.6735,0,0,1-.9826.8074l-4.8578,1.4923c-.0426.0769-.0873.1526-.1283.23l1.4458,4.7064a1.3367,1.3367,0,0,1-.0966,1.0181l-2.3608,4.4543c.0135.0456.0243.0913.0384.1369s.0307.0895.0451.1348l4.4543,2.3607a1.3366,1.3366,0,0,1,.6516.7883l1.4458,4.7063c.0776.0412.1571.0788.2354.1186l4.8579-1.4924a1.6735,1.6735,0,0,1,1.2664.1165l3.8483,2.3046Z" preserveAspectRatio="xMidYMid meet"/></svg>