<?xml version="1.0" encoding="utf-8"?>
<!-- Generator: Adobe Illustrator 25.3.1, SVG Export Plug-In . SVG Version: 6.00 Build 0)  -->
<svg version="1.1" id="Layer_1" xmlns="http://www.w3.org/2000/svg" xmlns:xlink="http://www.w3.org/1999/xlink" x="0px" y="0px"
	 viewBox="0 0 138 56" style="enable-background:new 0 0 138 56;" xml:space="preserve">
<style type="text/css">
	.st0{fill:#E6E7E8;}
	.st1{fill:#006E5B;}
	.st2{fill:url(#SVGID_1_);}
</style>
<path class="st0" d="M37.6,23.4C35,15,26,10.2,17.4,12.8C8.9,15.5,4.1,24.4,6.8,33C9.5,41.5,18.5,46.3,27,43.6
	C35.5,41,40.3,31.9,37.6,23.4z M25.4,38.7c-5.8,1.8-11.9-1.5-13.7-7.2C10,25.7,13.2,19.6,19,17.9c5.8-1.8,11.9,1.5,13.7,7.2
	S31.2,36.8,25.4,38.7z"/>
<path class="st1" d="M16.3,8.9l0.2,0.7c10.2-3.1,21.2,2.7,24.3,12.9c3.1,10.3-2.6,21.2-12.8,24.3c-10.2,3-21.1-2.7-24.3-12.9
	l-0.7,0.2c3.3,10.7,14.6,16.7,25.2,13.4c10.6-3.3,16.7-14.7,13.3-25.2C38.2,11.6,26.9,5.6,16.3,8.9z M32.1,15.9
	c0-0.1-0.2-0.3-0.3-0.3c-1.3-1-2.7-1.7-4.2-2.3c-0.2-0.1-0.5-0.2-0.7-0.1c-0.2,0.1-0.3,0.3-0.4,0.4l-1.1,2c-1.4-0.1-2.7-0.2-4.1-0.3
	c-0.2-0.9-0.5-1.7-0.9-2.6c-0.1-0.2-0.2-0.3-0.3-0.4c-0.2-0.1-0.4-0.1-0.6-0.1c-0.8,0.1-1.5,0.3-2.2,0.6l1.6,5
	c3.6-1.1,7.8-0.1,10.6,2.5c2.8,2.6,4,6.7,3.2,10.4s-3.7,6.8-7.4,8c0.3,1.1,0.7,2.2,1,3.3c0.1,0.3,0.2,0.6,0.3,0.8
	c0,0.1,0.1,0.3,0.1,0.4c0,0.1,0,0.1,0.1,0.2c0,0.1,0,0.2,0.1,0.2c0,0,0.1,0,0.2,0c0.1,0,0.1,0,0.2-0.1c0.1,0,0.3-0.1,0.4-0.1
	c0.3-0.1,0.5-0.2,0.8-0.3c0.3-0.1,0.6-0.2,0.8-0.4c0.1-0.1,0.3-0.2,0.4-0.3c0.1-0.2,0-0.3,0-0.5c-0.2-0.9-0.5-1.7-0.7-2.6
	c1.2-0.7,2.3-1.5,3.1-2.6c0.8,0.4,1.5,0.7,2.3,1.1c0.1,0.1,0.3,0.1,0.4,0.1c0.2,0,0.3-0.2,0.4-0.3c0.9-1.3,1.7-2.8,2.2-4.3
	c0.1-0.2,0.1-0.4,0.1-0.6c-0.1-0.2-0.3-0.4-0.5-0.5c-0.6-0.3-1.3-0.7-1.9-1c0.4-1.3,0.5-2.6,0.4-4c0.9-0.2,1.9-0.5,2.7-0.9
	c-0.2-1.8-0.7-3.6-1.5-5.3c-0.1-0.1-0.1-0.3-0.2-0.3c-0.2-0.1-0.4-0.1-0.6,0c-0.7,0.2-1.4,0.4-2.1,0.6c-0.7-1.1-1.6-2.1-2.6-3
	c0.4-0.7,0.7-1.4,1.1-2.1C32.1,16.2,32.2,16.1,32.1,15.9z M58.8,25.6c0.1,0,0.3-0.1,0.4-0.2c0.1-0.1,0.2-0.2,0.2-0.4s0-0.3-0.2-0.4
	h-0.4c-0.1,0-0.3,0-0.4,0.1c-0.1,0.1-0.2,0.2-0.2,0.4s0.1,0.3,0.2,0.4C58.5,25.6,58.6,25.6,58.8,25.6z M51.1,25.6
	c0.1,0,0.3-0.1,0.4-0.2c0.1-0.1,0.2-0.2,0.2-0.4s-0.1-0.3-0.2-0.4h-0.4c-0.2,0-0.3,0-0.4,0.1c-0.1,0.1-0.1,0.2-0.1,0.4
	s0,0.3,0.1,0.4C50.9,25.5,51,25.6,51.1,25.6z M49.7,25.6c0.1,0,0.3-0.1,0.4-0.2c0.1-0.1,0.2-0.2,0.2-0.4s-0.1-0.3-0.2-0.4h-0.4
	c-0.1,0-0.3,0-0.4,0.1c-0.1,0.1-0.2,0.2-0.2,0.4s0.1,0.3,0.2,0.4C49.4,25.6,49.5,25.6,49.7,25.6z M55.2,32.1c-0.1,0-0.3,0.1-0.4,0.2
	c-0.1,0.1-0.1,0.2-0.1,0.4c0,0.1,0.1,0.3,0.2,0.4c0.1,0.1,0.2,0.2,0.4,0.2c0.1,0,0.3-0.1,0.4-0.2c0.1-0.1,0.2-0.2,0.2-0.4
	c0-0.1-0.1-0.3-0.2-0.4C55.7,32.3,55.3,32.1,55.2,32.1z M134.9,24.4l-1,0.3v6.5h1V24.4z M100.4,25.6c0.1,0,0.3-0.1,0.4-0.2
	c0.1-0.1,0.2-0.2,0.2-0.4s-0.1-0.3-0.2-0.4h-0.4c-0.1,0-0.3,0-0.4,0.1c-0.1,0.1-0.2,0.2-0.2,0.4s0.1,0.3,0.2,0.4
	C100.1,25.5,100.2,25.6,100.4,25.6z M78,27c0,0.1,0.1,0.1,0.3,0.1c0.1,0,0.3,0,0.4-0.1c0.1-0.1,0.2-0.2,0.2-0.4
	c0-0.1-0.1-0.3-0.2-0.4c-0.1-0.1-0.2-0.2-0.4-0.2c-0.1,0-0.3,0.1-0.4,0.2c-0.1,0.1-0.1,0.3-0.1,0.4C77.8,26.7,77.8,26.9,78,27z
	 M65.2,25.6c0.1,0,0.3-0.1,0.4-0.2c0.1-0.1,0.1-0.2,0.1-0.4c0-0.1,0-0.3-0.1-0.4c-0.1-0.1-0.2-0.2-0.4-0.2s-0.3,0.1-0.4,0.2
	c-0.1,0.1-0.2,0.2-0.2,0.4c0,0.1,0.1,0.3,0.2,0.4C64.9,25.5,65.1,25.6,65.2,25.6z M79.6,27.1c0.1,0,0.3,0,0.4-0.1
	c0.1-0.1,0.2-0.2,0.2-0.4c0-0.1-0.1-0.3-0.2-0.4c-0.1-0.1-0.2-0.2-0.4-0.2c-0.1,0-0.3,0.1-0.4,0.2c-0.1,0.1-0.2,0.2-0.2,0.4
	c0,0.1,0.1,0.3,0.2,0.4C79.3,27.1,79.5,27.1,79.6,27.1z M131,25.6c0.1,0,0.3-0.1,0.4-0.2c0.1-0.1,0.2-0.2,0.2-0.4s0-0.3-0.2-0.4
	c-0.1-0.1-0.2-0.1-0.4-0.1c-0.1,0-0.3,0-0.4,0.1c-0.1,0.1-0.2,0.2-0.2,0.4s0.1,0.3,0.2,0.4C130.7,25.5,130.9,25.6,131,25.6z
	 M89.4,26.7c-0.7,0-1.3,0.2-1.6,0.7c-0.3,0.4-0.4,0.9-0.4,1.6v0.3c0,0.7-0.3,1-1,1h-1.3c-0.3,0-0.5-0.2-0.5-0.5v-5.3l-0.9,0.3V30
	c0,0.4,0.1,0.7,0.3,0.9s0.6,0.3,1,0.3h1.4c0.7,0,1.1-0.2,1.6-0.5c0.4,0.4,0.8,0.5,1.5,0.5c0.7,0,1.3-0.2,1.6-0.7
	c0.3-0.4,0.4-0.9,0.4-1.6s-0.1-1.1-0.4-1.6C90.7,26.9,90.2,26.7,89.4,26.7z M89.4,30.4c-0.7,0-1-0.4-1-1.4c0-0.9,0.3-1.4,1-1.4
	c0.7,0,1,0.4,1,1.4C90.5,29.9,90.2,30.4,89.4,30.4z M131.9,29.2c0,0.7-0.3,1-1,1h-0.8c-0.7,0-1.1-0.3-1.3-1c-0.1-0.6-0.3-1-0.6-1.4
	c-0.3-0.3-0.8-0.5-1.6-0.5c-1.3,0-2,0.6-2.1,1.9c-0.1,0.6-0.5,1-1.3,1h-1.1c-0.3,0-0.5-0.2-0.5-0.5v-5.3l-0.9,0.3v5.1
	c0,0.4,0.1,0.7,0.3,0.9s0.6,0.3,1,0.3h1.4c0.5,0,0.9-0.2,1.3-0.5c0.1,0.4,0.4,0.7,0.7,0.9s0.7,0.3,1.3,0.3c0.5,0,0.9-0.1,1.3-0.4
	c0.3-0.3,0.6-0.6,0.7-1c0.3,0.4,0.8,0.6,1.5,0.6h0.8c0.6,0,1-0.2,1.5-0.5c0.3-0.3,0.5-0.8,0.5-1.4v-2.8l-0.9,0.3V29.2z M126.6,31.1
	c-0.7,0-1.1-0.4-1.1-1.4c0-0.9,0.4-1.4,1.1-1.4c0.7,0,1,0.4,1,1.4C127.7,30.7,127.4,31.1,126.6,31.1z M117.9,26.5h-2.5
	c-0.7,0-1.3,0.1-1.7,0.4c-0.4,0.3-0.6,0.8-0.6,1.7v4.6l1-0.3v-4.3c0-0.5,0.1-0.8,0.3-0.9c0.2-0.1,0.6-0.2,1.1-0.2h0.5
	c-0.2,0.3-0.3,0.8-0.3,1.4c0,0.6,0.1,1.1,0.4,1.6c0.3,0.5,0.8,0.7,1.6,0.7c0.7,0,1.3-0.2,1.6-0.7c0.3-0.4,0.4-0.9,0.4-1.6
	s-0.1-1.1-0.4-1.6C119.1,26.7,118.6,26.5,117.9,26.5z M117.9,30.3c-0.7,0-1-0.5-1-1.5c0-0.9,0.3-1.5,1-1.5c0.7,0,1,0.5,1,1.5
	C118.9,29.7,118.6,30.3,117.9,30.3z M56.6,32.1c-0.1,0-0.3,0.1-0.4,0.2c-0.1,0.1-0.1,0.2-0.1,0.4c0,0.1,0,0.3,0.1,0.4
	c0.1,0.1,0.2,0.2,0.4,0.2c0.1,0,0.3-0.1,0.4-0.2c0.1-0.1,0.2-0.2,0.2-0.4c0-0.1-0.1-0.3-0.2-0.4C56.9,32.1,56.7,32.1,56.6,32.1z
	 M134.2,32.9v-0.2c0-0.2,0.1-0.4,0.2-0.4c0.1,0,0.2,0.1,0.3,0.2l0.2-0.3c-0.1-0.1-0.3-0.2-0.5-0.2c-0.4,0-0.6,0.2-0.6,0.7v0.2h-0.3
	l-0.2,0.4h1.8v-0.4H134.2z M132.5,24.5c-0.1,0-0.3,0-0.4,0.1c-0.1,0.1-0.2,0.2-0.2,0.4s0.1,0.3,0.2,0.4c0.1,0.1,0.2,0.2,0.4,0.2
	c0.1,0,0.3-0.1,0.4-0.2c0.1-0.1,0.1-0.2,0.1-0.4s0-0.3-0.1-0.4C132.7,24.5,132.6,24.5,132.5,24.5z M81.7,29.3c0,0.7-0.3,1-1,1h-3.5
	c-0.7,0-1-0.3-1-1v-2l-0.9,1v1c0,0.5,0.2,0.9,0.5,1.3c0.3,0.3,0.8,0.5,1.4,0.5h3.6c0.6,0,1-0.2,1.5-0.5c0.3-0.3,0.5-0.7,0.5-1.4
	v-2.9l-0.9,0.2V29.3z M110,29.2h0.1c0,0.7-0.3,1-1,1h-1c-0.7,0-1-0.3-1-1v-4.8l-1,0.3v4.5c0,0.7-0.3,1-1,1H103V30
	c0-1-0.1-1.8-0.4-2.3c-0.4-0.7-1.1-1.1-2.2-1.1c-0.8,0-1.6,0.3-2.3,1l0.7,0.6c0.5-0.5,1-0.8,1.6-0.8c0.7,0,1.1,0.3,1.4,0.8
	c0.1,0.3,0.2,0.9,0.2,1.8v0.4h-6v-2.1c0-0.5-0.2-0.9-0.5-1.3c-0.4-0.3-0.9-0.5-1.5-0.5c-0.4,0-0.9,0.2-1.4,0.6v1.1
	c0.3-0.6,0.8-0.9,1.4-0.9c0.7,0,1,0.3,1,1v2h-2.6l-0.6,0.8h13.1c0.6,0,1.1-0.2,1.5-0.5c0.3,0.4,0.8,0.5,1.5,0.5h1.1
	c0.6,0,1-0.2,1.5-0.5c0.3-0.3,0.5-0.8,0.5-1.4v-4.8l-0.9,0.3V29.2z M72,31.2h1v-6.8l-1,0.3V31.2z M59.7,29.2h-0.1c0,0.7-0.3,1-1,1
	h-1.1c-0.7,0-1-0.3-1-1v-2.8l-0.9,0.3v2.5c0,0.7-0.3,1-1,1h-1.3c-0.7,0-1-0.3-1-1v-2.8H50c-1.4,0-2,0.7-2,2.3c0,1.6,0.6,2.4,2,2.4
	c0.8,0,1.3-0.2,1.6-0.7c0.2,0.5,0.7,0.7,1.6,0.7h1.3c0.6,0,1.1-0.2,1.5-0.5c0.3,0.4,0.8,0.5,1.5,0.5h1.4c0.6,0,1-0.2,1.5-0.5
	c0.3-0.3,0.5-0.8,0.5-1.4v-2.8l-0.9,0.3V29.2z M51.2,28.8c0,0.5-0.1,0.8-0.2,1.1c-0.1,0.3-0.4,0.4-0.8,0.4s-0.7-0.1-0.8-0.4
	c-0.1-0.2-0.2-0.6-0.2-1.1c0-0.5,0.1-0.8,0.2-1.1c0.1-0.3,0.4-0.4,0.8-0.4h1V28.8z M60.1,24.5c-0.1,0-0.3,0-0.4,0.1
	c-0.1,0.1-0.2,0.2-0.2,0.4s0.1,0.3,0.2,0.4c0.1,0.1,0.3,0.1,0.4,0.1c0.1,0,0.3-0.1,0.4-0.2c0.1-0.1,0.1-0.2,0.1-0.4s0-0.3-0.1-0.4
	H60.1z M70.1,29.2c0,0.7-0.3,1-1,1h-1.9v-2.1c0-0.5-0.2-0.9-0.5-1.3c-0.4-0.3-0.8-0.5-1.5-0.5c-0.4,0-0.9,0.2-1.5,0.6v1.1
	c0.3-0.6,0.8-0.9,1.5-0.9c0.7,0,1,0.3,1,1v2h-2.6l-0.6,0.8h6c0.6,0,1-0.2,1.5-0.5c0.3-0.3,0.5-0.8,0.5-1.4v-4.7l-0.9,0.3V29.2z
	 M61.6,31.2h0.9v-6.8l-0.9,0.3V31.2z"/>
<linearGradient id="SVGID_1_" gradientUnits="userSpaceOnUse" x1="7.7944" y1="25.6324" x2="27.2366" y2="25.6324">
	<stop  offset="0.7317" style="stop-color:#A99632"/>
	<stop  offset="1" style="stop-color:#A99632"/>
</linearGradient>
<path class="st2" d="M16.4,11.1c1,0,1.8-0.8,1.8-1.8c0-1-0.8-1.8-1.8-1.8c-1,0-1.8,0.8-1.8,1.8C14.6,10.3,15.4,11.1,16.4,11.1z
	 M25.5,38.7l-5-2.2l-2.7,1l-0.9-3l-4.6-3l2-5l-0.7-3l2.8-0.9l2.6-4.7l-1.6-5l-2.1,5c-0.2,0.4-0.6,0.8-1.1,0.9l-5.7,1.8
	c-0.1,0.1-0.1,0.2-0.2,0.2l1.8,5.5c0.1,0.4,0.1,0.8-0.1,1.1l-2.7,5.2c0,0.1,0,0.1,0.1,0.2c0,0.1,0,0.1,0.1,0.2l5.2,2.7
	c0.3,0.2,0.6,0.5,0.7,0.9l1.7,5.5c0.1,0.1,0.2,0.1,0.2,0.2l5.7-1.8c0.5-0.2,1-0.1,1.5,0.2l4.7,2.8c0.1-0.1,0.1-0.1,0.2-0.2
	L25.5,38.7z"/>
</svg>
