<?xml version="1.0" encoding="utf-8"?>
<!-- Generator: Adobe Illustrator 26.0.2, SVG Export Plug-In . SVG Version: 6.00 Build 0)  -->
<svg version="1.1" id="Layer_1" xmlns="http://www.w3.org/2000/svg" xmlns:xlink="http://www.w3.org/1999/xlink" x="0px" y="0px"
	 viewBox="0 0 22.6 22.6" style="enable-background:new 0 0 22.6 22.6;" xml:space="preserve">
<style type="text/css">
	.st0{fill:#0E6B4B;}
	.st1{fill:#CAA738;}
</style>
<path class="st0" d="M18.5,12.6c-0.6,3.5-3.6,6-7.2,6c-3.6,0-6.6-2.6-7.2-6.1l-0.5,0.1h0v0l-0.1,0c0.6,3.8,3.9,6.6,7.8,6.6
	c3.5,0,6.6-2.4,7.5-5.8c0.1-0.3,0.1-0.5,0.2-0.8h0c0,0,0-0.1,0-0.1L18.5,12.6z M19.1,10c-0.6-3.8-3.9-6.6-7.8-6.6
	c-3.6,0-6.7,2.4-7.5,5.9C3.8,9.5,3.7,9.8,3.6,10h0c0,0,0,0.1,0,0.1L4.2,10c0.6-3.5,3.6-6,7.2-6c3.6,0,6.6,2.6,7.2,6.1L19.1,10
	L19.1,10z M15.5,1.6c2.2,0.9,4,2.5,5.1,4.6l0.6-0.3C18.7,1.3,13.4-1,8.3,0.5l0.3,0.6C10.9,0.5,13.3,0.7,15.5,1.6L15.5,1.6z M1.6,7.2
	c0.9-2.2,2.5-4,4.6-5.1L5.9,1.5C1.3,3.9-0.9,9.3,0.5,14.3l0.6-0.3C0.5,11.8,0.7,9.4,1.6,7.2z M22.2,8.3l-0.6,0.3
	c1.3,4.7-0.8,9.6-5,11.9l0.3,0.6C21.4,18.7,23.6,13.4,22.2,8.3z M7.2,21.1c-2.2-0.9-4-2.5-5.1-4.6l-0.6,0.3
	c2.5,4.6,7.8,6.9,12.8,5.4l-0.3-0.6C11.8,22.2,9.4,22,7.2,21.1z"/>
<path class="st1" d="M0.8,13.5c-0.4,0-0.8,0.3-0.8,0.7S0.3,15,0.7,15c0.4,0,0.8-0.3,0.8-0.7C1.5,13.9,1.2,13.6,0.8,13.5
	C0.8,13.5,0.8,13.5,0.8,13.5z M8.2,1.5C8.6,1.5,9,1.2,9,0.8S8.8,0,8.4,0C8,0,7.6,0.3,7.6,0.7l0,0C7.5,1.1,7.8,1.4,8.2,1.5
	C8.2,1.5,8.2,1.5,8.2,1.5z M13.8,8.9c0.5,0,0.8-0.4,0.8-0.8c0-0.5-0.4-0.8-0.8-0.8c-0.5,0-0.8,0.4-0.8,0.8C13,8.6,13.4,8.9,13.8,8.9
	L13.8,8.9z M11.2,8.9c0.5,0,0.8-0.4,0.8-0.8c0-0.5-0.4-0.8-0.8-0.8c-0.5,0-0.8,0.4-0.8,0.8C10.3,8.6,10.7,8.9,11.2,8.9L11.2,8.9z
	 M7.7,8.1c0,0.5,0.4,0.8,0.8,0.8s0.8-0.4,0.8-0.8c0-0.5-0.4-0.8-0.8-0.8C8.1,7.3,7.7,7.6,7.7,8.1C7.7,8.1,7.7,8.1,7.7,8.1z M14.2,21
	c-0.4,0-0.8,0.3-0.8,0.7c0,0.4,0.3,0.8,0.7,0.8c0.4,0,0.8-0.3,0.8-0.7C14.9,21.4,14.6,21.1,14.2,21C14.2,21,14.2,21,14.2,21z
	 M21.8,7.5c-0.4,0-0.8,0.3-0.8,0.7c0,0.4,0.3,0.8,0.7,0.8s0.8-0.3,0.8-0.7c0,0,0,0,0,0l0,0C22.5,7.9,22.2,7.6,21.8,7.5z M7.7,15.2
	h1.7V9.5H7.7L7.7,15.2z M14.6,9.5H13v5.7h1.7L14.6,9.5z M10.3,15.2H12V9.5h-1.7V15.2z"/>
</svg>
