<?xml version="1.0" encoding="utf-8"?>
<!-- Generator: Adobe Illustrator 26.0.2, SVG Export Plug-In . SVG Version: 6.00 Build 0)  -->
<svg version="1.1" id="Layer_1" xmlns="http://www.w3.org/2000/svg" xmlns:xlink="http://www.w3.org/1999/xlink" x="0px" y="0px"
	 viewBox="0 0 50 50" style="enable-background:new 0 0 50 50;" xml:space="preserve">
<style type="text/css">
	.st0{fill:#C9A636;}
	.st1{fill:#0F6C4C;}
</style>
<g>
	<g>
		<rect x="18" y="25.9" class="st0" width="3.6" height="8"/>
		<rect x="23.7" y="21.6" class="st0" width="3.6" height="12.3"/>
		<rect x="29.4" y="25.9" class="st0" width="3.6" height="8"/>
		<g>
			<path class="st0" d="M19.8,21.8c-1,0-1.8,0.8-1.8,1.8c0,1,0.8,1.8,1.8,1.8c1,0,1.8-0.8,1.8-1.8C21.6,22.6,20.8,21.8,19.8,21.8z"
				/>
			<path class="st0" d="M25.5,16.8c-1,0-1.8,0.8-1.8,1.8c0,1,0.8,1.8,1.8,1.8c1,0,1.8-0.8,1.8-1.8C27.3,17.6,26.5,16.8,25.5,16.8z"
				/>
			<path class="st0" d="M31.2,21.8c-1,0-1.8,0.8-1.8,1.8c0,1,0.8,1.8,1.8,1.8c1,0,1.8-0.8,1.8-1.8C33,22.6,32.2,21.8,31.2,21.8z"/>
		</g>
	</g>
	<g>
		<path class="st1" d="M31.4,47.3c-4.7,1.3-9.9,1.1-14.7-0.9c-4.9-2-8.6-5.6-10.9-9.9L4.3,37c2.5,4.6,6.5,8.5,11.7,10.7
			c5.2,2.2,10.8,2.3,15.9,0.9L31.4,47.3z"/>
		<path class="st1" d="M4.5,16.5c2-4.9,5.6-8.6,9.9-10.9l-0.6-1.4C9.2,6.8,5.3,10.7,3.1,16c-2.2,5.2-2.3,10.8-0.9,15.9l1.4-0.6
			C2.3,26.5,2.5,21.4,4.5,16.5z"/>
		<path class="st1" d="M19,2.1l0.6,1.4c4.7-1.3,9.9-1.1,14.7,0.9c4.9,2,8.6,5.6,10.9,9.9l1.4-0.6C44.1,9.1,40.2,5.2,34.9,3
			C29.7,0.8,24.1,0.7,19,2.1z"/>
		<path class="st1" d="M46.5,34.2c-2,4.9-5.6,8.6-9.9,10.9l0.6,1.4c4.6-2.5,8.5-6.5,10.7-11.7c2.2-5.2,2.3-10.8,0.9-15.9l-1.4,0.6
			C48.7,24.2,48.5,29.4,46.5,34.2z"/>
	</g>
	<g>
		<path class="st1" d="M10.1,22.6c1.3-7.5,7.8-12.9,15.4-12.9c7.6,0,14,5.4,15.5,13h1.2l0-0.2c-1.4-8.2-8.4-14.2-16.7-14.2
			c-7.7,0-14.3,5.2-16.2,12.6C9.2,21.5,9,22,8.9,22.6h0c0,0.1,0,0.1,0,0.2L10.1,22.6z"/>
		<path class="st1" d="M40.9,28.1C39.5,35.6,33.1,41,25.5,41c-7.6,0-14-5.4-15.5-13l-1,0.2h0c0,0,0,0,0,0l-0.2,0
			c1.4,8.2,8.4,14.2,16.7,14.2c7.7,0,14.2-5.1,16.1-12.6c0.2-0.6,0.3-1.1,0.4-1.7h0c0-0.1,0-0.1,0-0.2L40.9,28.1z"/>
	</g>
	<g>
		<g>
			<circle class="st0" cx="19.3" cy="2.8" r="1.6"/>
		</g>
	</g>
	<g>
		<g>
			<circle class="st0" cx="31.8" cy="48" r="1.6"/>
		</g>
	</g>
	<g>
		<g>
			<circle class="st0" cx="48.1" cy="19" r="1.6"/>
		</g>
	</g>
	<g>
		<g>
			<circle class="st0" cx="3.1" cy="31.9" r="1.6"/>
		</g>
	</g>
</g>
</svg>
