<?xml version="1.0" encoding="utf-8"?>
<!-- Generator: Adobe Illustrator 26.0.2, SVG Export Plug-In . SVG Version: 6.00 Build 0)  -->
<svg version="1.1" id="Layer_1" xmlns="http://www.w3.org/2000/svg" xmlns:xlink="http://www.w3.org/1999/xlink" x="0px" y="0px"
	 viewBox="0 0 96 96" style="enable-background:new 0 0 96 96;" xml:space="preserve">
<style type="text/css">
	.st0{fill:#C9A636;}
	.st1{fill:#0F6C4C;}
	.st2{fill:#0F6D4C;}
</style>
<g>
	<g>
		<g>
			<rect x="40.5" y="26.9" class="st0" width="3.6" height="8"/>
			<rect x="46.2" y="22.6" class="st0" width="3.6" height="12.3"/>
			<rect x="51.9" y="26.9" class="st0" width="3.6" height="8"/>
			<g>
				<path class="st0" d="M42.3,22.9c-1,0-1.8,0.8-1.8,1.8c0,1,0.8,1.8,1.8,1.8c1,0,1.8-0.8,1.8-1.8C44.1,23.7,43.3,22.9,42.3,22.9z"
					/>
				<path class="st0" d="M48,17.9c-1,0-1.8,0.8-1.8,1.8c0,1,0.8,1.8,1.8,1.8c1,0,1.8-0.8,1.8-1.8C49.8,18.7,49,17.9,48,17.9z"/>
				<path class="st0" d="M53.7,22.9c-1,0-1.8,0.8-1.8,1.8c0,1,0.8,1.8,1.8,1.8c1,0,1.8-0.8,1.8-1.8C55.5,23.7,54.7,22.9,53.7,22.9z"
					/>
			</g>
		</g>
		<g>
			<path class="st1" d="M53.9,48.3c-4.7,1.3-9.9,1.1-14.7-0.9c-4.9-2-8.6-5.6-10.9-9.9l-1.4,0.6c2.5,4.6,6.5,8.5,11.7,10.7
				c5.2,2.2,10.8,2.3,15.9,0.9L53.9,48.3z"/>
			<path class="st1" d="M27,17.6c2-4.9,5.6-8.6,9.9-10.9l-0.6-1.4c-4.6,2.5-8.5,6.5-10.7,11.7c-2.2,5.2-2.3,10.8-0.9,15.9l1.4-0.6
				C24.8,27.6,25,22.4,27,17.6z"/>
			<path class="st1" d="M41.5,3.2l0.6,1.4c4.7-1.3,9.9-1.1,14.7,0.9c4.9,2,8.6,5.6,10.9,9.9l1.4-0.6c-2.5-4.6-6.5-8.5-11.7-10.7
				C52.2,1.9,46.6,1.7,41.5,3.2z"/>
			<path class="st1" d="M69,35.3c-2,4.9-5.6,8.6-9.9,10.9l0.6,1.4c4.6-2.5,8.5-6.5,10.7-11.7c2.2-5.2,2.3-10.8,0.9-15.9l-1.4,0.6
				C71.2,25.3,71,30.4,69,35.3z"/>
		</g>
		<g>
			<path class="st1" d="M32.6,23.6C34,16.2,40.4,10.8,48,10.8c7.6,0,14,5.4,15.5,13h1.2l0-0.2C63.4,15.4,56.3,9.4,48,9.4
				c-7.7,0-14.3,5.2-16.2,12.6c-0.1,0.5-0.3,1.1-0.4,1.6h0c0,0.1,0,0.1,0,0.2L32.6,23.6z"/>
			<path class="st1" d="M63.4,29.2C62,36.7,55.6,42.1,48,42.1c-7.6,0-14-5.4-15.5-13l-1,0.2h0c0,0,0,0,0,0l-0.2,0
				c1.4,8.2,8.4,14.2,16.7,14.2c7.7,0,14.2-5.1,16.1-12.6c0.2-0.6,0.3-1.1,0.4-1.7h0c0-0.1,0-0.1,0-0.2L63.4,29.2z"/>
		</g>
		<g>
			<g>
				<circle class="st0" cx="41.8" cy="3.9" r="1.6"/>
			</g>
		</g>
		<g>
			<g>
				<circle class="st0" cx="54.3" cy="49" r="1.6"/>
			</g>
		</g>
		<g>
			<g>
				<circle class="st0" cx="70.6" cy="20" r="1.6"/>
			</g>
		</g>
		<g>
			<g>
				<circle class="st0" cx="25.6" cy="33" r="1.6"/>
			</g>
		</g>
	</g>
	<g>
		<circle class="st0" cx="79.4" cy="61.4" r="1.7"/>
		<circle class="st0" cx="86.5" cy="61.4" r="1.7"/>
		<circle class="st0" cx="93.5" cy="61.4" r="1.7"/>
		<g>
			<path class="st2" d="M15,79.6c0,4.9-1.7,7.4-5,7.4c-3.7,0-5.5-2.5-5.5-7.5c0-2.4,0.3-4.8,1-7.1l-4.2,0.8
				c-0.6,2.3-0.9,4.5-0.9,6.7c0,6.8,3,10.3,9.1,10.3c6.2,0,9.4-3.6,9.4-10.8V58.1h-4V79.6z"/>
			<path class="st2" d="M73.3,78.5h-0.6h-2.8v-6.2c0-5.5-2.7-8.2-8-8.2c-2.9,0-5.2,0.9-6.9,2.7c-1.6,1.6-2.3,3.7-2.3,6.2
				c0,2.1-0.4,3.5-1.2,4.4c-0.7,0.7-1.7,1.1-3.2,1.1H40v-6.2c0-5.5-2.7-8.2-8-8.2c-2.9,0-5.2,0.9-6.9,2.7c0,0,0,0,0,0.1l0,0
				c-1.5,1.6-2.3,3.8-2.3,6.3c0,5.7,3.2,8.5,9.7,8.5h3.3v0.7c0,3.5-2.2,5.3-6.7,5.3c-1.9,0-3.8-0.2-5.7-0.7L23,90.3
				c1.9,0.3,3.8,0.5,5.6,0.5c3.7,0,6.6-0.9,8.5-2.6c1.7-1.5,2.5-3.6,2.5-6.1v-0.4h8.7h0.6h0.7v-0.1c2.7-0.2,4.4-1.2,5-3.1
				c1.4,2.1,4.2,3.2,8.3,3.2h9.9h0.6h5.4v-3.2H73.3z M31.7,67.3c2.9,0,4.4,1.9,4.4,5.7v5.5h-3.3c-4.1,0-6.1-1.9-6.1-5.7
				c0-1.7,0.4-3,1.3-4C29,67.8,30.2,67.3,31.7,67.3z M66,78.5h-3.2c-4.1,0-6.1-1.9-6.1-5.7c0-1.7,0.4-3,1.3-4c0.9-1,2.1-1.5,3.6-1.5
				c2.9,0,4.4,1.9,4.4,5.7V78.5z"/>
		</g>
		<path class="st0" d="M89.3,52.7c-0.5-0.5-1-0.7-1.7-0.7c-0.7,0-1.3,0.2-1.7,0.7c-0.5,0.5-0.7,1.1-0.7,1.8c0,0.6,0.1,1.1,0.4,1.4
			l-3.2,0.8l1.5,0.7l3.8-0.6c0.7-0.1,1.2-0.4,1.6-0.8c0.4-0.5,0.7-1,0.7-1.6C90,53.7,89.8,53.1,89.3,52.7z M88.6,54.6
			c0,0.5-0.2,0.9-0.8,1l0,0l-0.1,0c-0.2,0-0.4-0.1-0.7-0.2c-0.2-0.1-0.3-0.4-0.3-0.7c0-0.3,0.1-0.6,0.3-0.8c0.2-0.2,0.4-0.4,0.7-0.4
			C88.1,53.5,88.6,53.6,88.6,54.6z"/>
		<rect x="77.4" y="64.4" class="st0" width="3.9" height="17.3"/>
		<rect x="84.5" y="64.4" class="st0" width="3.9" height="17.3"/>
		<rect x="91.5" y="64.4" class="st0" width="3.9" height="17.3"/>
	</g>
</g>
</svg>
