<?xml version="1.0" encoding="utf-8"?>
<!-- Generator: Adobe Illustrator 25.2.3, SVG Export Plug-In . SVG Version: 6.00 Build 0)  -->
<svg version="1.1" id="Layer_1" xmlns="http://www.w3.org/2000/svg" xmlns:xlink="http://www.w3.org/1999/xlink" x="0px" y="0px"
	 viewBox="0 0 96 96" style="enable-background:new 0 0 96 96;" xml:space="preserve">
<style type="text/css">
	.st0{fill:#086A39;}
	.st1{fill:url(#SVGID_1_);}
	.st2{fill:#E6E7E8;}
	.st3{clip-path:url(#SVGID_3_);fill:url(#SVGID_4_);}
	.st4{fill:#006E5B;}
</style>
<g>
	<g>
		<g>
			<path class="st0" d="M54.5,53.1C41.7,57,28,49.8,24,36.9l0.9-0.3C28.8,49,41.9,55.9,54.3,52.2c12.4-3.8,19.3-16.9,15.5-29.3
				C66,10.5,52.8,3.5,40.5,7.3l-0.3-0.9c12.9-4,26.5,3.3,30.5,16.2C74.7,35.4,67.4,49.1,54.5,53.1z"/>
		</g>
		<g>
			
				<linearGradient id="SVGID_1_" gradientUnits="userSpaceOnUse" x1="12.6616" y1="-80.7967" x2="16.8001" y2="-80.7967" gradientTransform="matrix(0.9559 -0.2937 0.2937 0.9559 49.994 88.4178)">
				<stop  offset="0.7317" style="stop-color:#A99632"/>
				<stop  offset="1" style="stop-color:#A99632"/>
			</linearGradient>
			<circle class="st1" cx="40.3" cy="6.9" r="2.1"/>
		</g>
		<g>
			<path class="st2" d="M41.6,11.1c-10.3,3.2-16.1,14.1-12.9,24.4c3.2,10.3,14.1,16.1,24.4,12.9C63.4,45.2,69.2,34.3,66,24
				C62.9,13.7,51.9,7.9,41.6,11.1z M51.3,42.4c-7,2.1-14.4-1.8-16.5-8.7c-2.1-7,1.8-14.4,8.7-16.5c7-2.1,14.4,1.8,16.5,8.7
				C62.1,32.8,58.2,40.2,51.3,42.4z"/>
		</g>
		<path class="st0" d="M65.7,24c-0.3-1.1-0.8-2.2-1.3-3.2c-0.2-0.1-0.5-0.1-0.7,0l-2.7,0.8C60.1,20.2,59,19,57.8,18l0,0l1.3-2.5
			c0.1-0.2,0.2-0.5,0.1-0.8c-1.8-1.4-3.8-2.5-5.9-3.2c-0.3,0.1-0.5,0.3-0.6,0.5l-1.4,2.5c-1.6-0.4-3.3-0.5-4.9-0.4l0,0l-0.8-2.7
			c-0.1-0.3-0.4-0.8-0.7-1c-1,0.1-2.3,0.4-3.3,0.7l1.9,6c3.6-1,7-0.9,9.7,0.9c3,1.5,5.3,4.1,6.4,7.5c0,0.1,0.1,0.3,0.1,0.4l0,0
			c0,0,0,0,0,0c0,0,0,0,0,0l0,0c0,0.1,0.1,0.3,0.1,0.4c1,3.4,0.6,6.9-1.1,9.8c-1.3,3-4.5,4.6-7.5,6.2l1.9,6c1-0.3,2.3-0.8,3.2-1.3
			c0.2-0.3,0.1-0.8,0-1.2l-0.8-2.7l0,0c1.4-0.8,2.7-1.8,3.8-3.1l2.6,1.3c0.3,0.1,0.6,0.2,0.8,0.1c1.4-1.8,2.4-3.8,3.1-6
			c-0.1-0.2-0.3-0.4-0.5-0.6l-2.5-1.3l0,0c0.4-1.6,0.6-3.1,0.5-4.8l2.7-0.8c0.2-0.1,0.4-0.2,0.6-0.4c-0.1-1.1-0.4-2.2-0.7-3.3
			C65.7,24.2,65.7,24.1,65.7,24C65.7,24.1,65.7,24,65.7,24z"/>
		<g>
			<defs>
				<path id="SVGID_2_" d="M51.3,42.4c-7,2.1-14.4-1.8-16.5-8.7c-2.1-7,1.8-14.4,8.7-16.5l-1.9-6c-10.3,3.2-16.1,14.1-12.9,24.4
					c3.2,10.3,14.1,16.1,24.4,12.9L51.3,42.4z"/>
			</defs>
			<clipPath id="SVGID_3_">
				<use xlink:href="#SVGID_2_"  style="overflow:visible;"/>
			</clipPath>
			
				<linearGradient id="SVGID_4_" gradientUnits="userSpaceOnUse" x1="-4.244" y1="-56.8218" x2="15.3628" y2="-56.8218" gradientTransform="matrix(0.9559 -0.2937 0.2937 0.9559 49.994 88.4178)">
				<stop  offset="0.7317" style="stop-color:#A99632"/>
				<stop  offset="1" style="stop-color:#A99632"/>
			</linearGradient>
			<path class="st3" d="M36.9,24l3.4-1.1l3.8-4.5l-1.8-6.9c-0.4,0,0.2-0.7-0.2-0.8l-3,6.6c-0.3,0.5-0.8,1-1.4,1.1l-6.9,2.1
				c-0.1,0.1-0.1,0.2-0.2,0.3l2,6.7c0.1,0.5,0.1,1-0.1,1.4l-3.3,6.3c0,0.1,0,0.1,0.1,0.2c0,0.1,0,0.1,0.1,0.2l6.3,3.3
				c0.4,0.2,0.8,0.6,0.9,1.1l2,6.7c0.1,0.1,0.2,0.1,0.3,0.2l6.9-2.1c0.6-0.2,1.2-0.1,1.8,0.2l5.7,3.4c0.1-0.1,0.1-0.1,0.2-0.2
				l-2.1-5.8l-6-2.6L42.1,41L41,37.4l-5.5-3.7l2.4-6.1L36.9,24z"/>
		</g>
	</g>
	<g>
		<path class="st4" d="M40.8,70.2c-0.6,0.8-1.4,1.2-2.6,1.2c-1.2,0-2-0.4-2.6-1.2c-0.5-0.7-0.7-1.5-0.7-2.6c0-1,0.2-1.7,0.5-2.3
			h-0.9c-0.9,0-1.5,0.1-1.9,0.4c-0.4,0.3-0.5,0.8-0.5,1.6v7l-1.6,0.5v-7.5c0-1.3,0.3-2.2,1-2.7c0.6-0.5,1.5-0.7,2.7-0.7h4
			c1.1,0,2,0.4,2.6,1.2c0.5,0.7,0.7,1.5,0.7,2.6C41.5,68.7,41.3,69.5,40.8,70.2z M36.6,67.6c0,1.6,0.6,2.4,1.7,2.4
			c1.1,0,1.7-0.8,1.7-2.4c0-1.6-0.6-2.4-1.7-2.4C37.2,65.3,36.6,66.1,36.6,67.6z"/>
		<path class="st4" d="M45.2,71.5c-0.7,0-1.3-0.2-1.7-0.6C43.2,70.5,43,70,43,69.3v-8.3l1.6-0.5v8.7c0,0.5,0.3,0.8,0.8,0.8H47v1.4
			H45.2z"/>
		<path class="st4" d="M58,71.5c-1,0-1.8-0.4-2.3-1.1c-0.2,0.7-0.6,1.3-1.2,1.7c-0.6,0.4-1.3,0.6-2.1,0.6c-0.8,0-1.5-0.2-2-0.5
			c-0.6-0.4-1-0.9-1.2-1.5c-0.5,0.6-1.2,0.8-2.1,0.8h-0.5v-1.4H47c1.2,0,1.9-0.5,2-1.6c0.3-2,1.4-3,3.4-3c1.1,0,1.9,0.3,2.5,0.8
			c0.5,0.4,0.8,1.2,1,2.2c0.2,1.1,0.9,1.7,2.1,1.7l0.3,0v1.4H58z M52.4,66.8c-1.2,0-1.8,0.8-1.8,2.3c0,1.5,0.6,2.3,1.8,2.3
			c1.2,0,1.8-0.8,1.8-2.3C54.2,67.6,53.6,66.8,52.4,66.8z"/>
		<path class="st4" d="M61.5,70.7c-0.6,0.6-1.4,0.8-2.3,0.8h-1.3v-1.4h1.2c1.1,0,1.7-0.6,1.7-1.7v-4.1l1.6-0.5v4.7
			C62.4,69.4,62.1,70.1,61.5,70.7z M59.4,62.3c-0.2,0-0.4-0.1-0.6-0.3c-0.2-0.2-0.3-0.4-0.3-0.6c0-0.2,0.1-0.4,0.3-0.6
			s0.4-0.3,0.6-0.3s0.4,0.1,0.6,0.3s0.3,0.4,0.3,0.6c0,0.2-0.1,0.4-0.3,0.6C59.8,62.3,59.6,62.3,59.4,62.3z M61.6,62.3
			c-0.2,0-0.4-0.1-0.6-0.3c-0.2-0.2-0.3-0.4-0.3-0.6c0-0.2,0.1-0.4,0.3-0.6s0.4-0.3,0.6-0.3c0.2,0,0.5,0.1,0.6,0.3
			c0.2,0.2,0.3,0.4,0.3,0.6c0,0.2-0.1,0.4-0.3,0.6C62.1,62.3,61.9,62.3,61.6,62.3z"/>
		<path class="st4" d="M63,74.8l0.4-0.6h0.5v-0.3c0-0.8,0.4-1.2,1.1-1.2c0.3,0,0.5,0.1,0.8,0.4l-0.4,0.5c-0.1-0.2-0.3-0.3-0.5-0.3
			c-0.3,0-0.4,0.2-0.4,0.6v0.3h1.3v0.6H63z M63.9,71.5V61.1l1.6-0.5v11H63.9z"/>
		<path class="st4" d="M11.9,88.5c-1.1,0-1.8-0.3-2.1-1c-0.3,0.7-1,1-2.1,1c-1.8,0-2.7-1.1-2.7-3.2c0-2.1,0.9-3.1,2.7-3.1h2.9v3.8
			c0,1,0.5,1.4,1.4,1.4h0.8v1.2H11.9z M7.8,83.2c-0.6,0-1,0.2-1.2,0.6c-0.2,0.3-0.3,0.8-0.3,1.5c0,0.7,0.1,1.2,0.3,1.5
			c0.2,0.4,0.6,0.6,1.2,0.6c0.6,0,1-0.2,1.2-0.6c0.2-0.3,0.3-0.8,0.3-1.5v-2.1H7.8z M7.2,80.9c-0.2,0-0.4-0.1-0.5-0.2
			c-0.1-0.1-0.2-0.3-0.2-0.5c0-0.2,0.1-0.4,0.2-0.5c0.1-0.1,0.3-0.2,0.5-0.2c0.2,0,0.4,0.1,0.5,0.2C7.9,79.8,8,79.9,8,80.1
			c0,0.2-0.1,0.4-0.2,0.5C7.6,80.8,7.5,80.9,7.2,80.9z M9.2,80.9c-0.2,0-0.4-0.1-0.5-0.2c-0.1-0.1-0.2-0.3-0.2-0.5
			c0-0.2,0.1-0.4,0.2-0.5c0.1-0.1,0.3-0.2,0.5-0.2c0.2,0,0.4,0.1,0.5,0.2c0.1,0.1,0.2,0.3,0.2,0.5c0,0.2-0.1,0.4-0.2,0.5
			C9.5,80.8,9.4,80.9,9.2,80.9z"/>
		<path class="st4" d="M17.5,88.5c-0.8,0-1.5-0.3-2-0.8c-0.5,0.5-1.2,0.8-2,0.8h-1v-1.2h0.9c0.9,0,1.4-0.5,1.4-1.4v-3.4l1.3-0.4v3.8
			c0,0.9,0.5,1.4,1.4,1.4h0.8v1.2H17.5z M14.5,91.2c-0.2,0-0.4-0.1-0.5-0.2c-0.1-0.1-0.2-0.3-0.2-0.5c0-0.2,0.1-0.4,0.2-0.5
			s0.3-0.2,0.5-0.2c0.2,0,0.4,0.1,0.5,0.2c0.1,0.1,0.2,0.3,0.2,0.5c0,0.2-0.1,0.4-0.2,0.5C14.9,91.1,14.7,91.2,14.5,91.2z
			 M16.4,91.2c-0.2,0-0.4-0.1-0.5-0.2c-0.1-0.1-0.2-0.3-0.2-0.5c0-0.2,0.1-0.4,0.2-0.5c0.1-0.1,0.3-0.2,0.5-0.2
			c0.2,0,0.4,0.1,0.5,0.2s0.2,0.3,0.2,0.5c0,0.2-0.1,0.4-0.2,0.5S16.6,91.2,16.4,91.2z"/>
		<path class="st4" d="M21,87.8c-0.5,0.5-1.1,0.7-1.9,0.7H18v-1.2h1c0.9,0,1.4-0.5,1.4-1.4v-3.4l1.3-0.4V86
			C21.7,86.7,21.5,87.3,21,87.8z M19.2,80.9c-0.2,0-0.4-0.1-0.5-0.2c-0.1-0.1-0.2-0.3-0.2-0.5c0-0.2,0.1-0.4,0.2-0.5
			c0.1-0.1,0.3-0.2,0.5-0.2s0.4,0.1,0.5,0.2c0.1,0.1,0.2,0.3,0.2,0.5c0,0.2-0.1,0.4-0.2,0.5C19.6,80.8,19.4,80.9,19.2,80.9z
			 M21.1,80.9c-0.2,0-0.4-0.1-0.5-0.2c-0.1-0.1-0.2-0.3-0.2-0.5c0-0.2,0.1-0.4,0.2-0.5c0.1-0.1,0.3-0.2,0.5-0.2
			c0.2,0,0.4,0.1,0.5,0.2c0.1,0.1,0.2,0.3,0.2,0.5c0,0.2-0.1,0.4-0.2,0.5C21.5,80.8,21.3,80.9,21.1,80.9z"/>
		<path class="st4" d="M22.9,88.5v-8.7l1.3-0.4v9.1H22.9z"/>
		<path class="st4" d="M25.5,88.5l0.8-1.2h3.5v-2.7c0-0.9-0.5-1.4-1.5-1.4c-0.8,0-1.4,0.4-1.9,1.2V83c0.6-0.6,1.3-0.8,1.9-0.8
			c0.8,0,1.5,0.2,2,0.7c0.5,0.4,0.8,1,0.8,1.8v2.8H33v1.2H25.5z M29,80.6c-0.1,0.1-0.3,0.2-0.5,0.2c-0.2,0-0.4-0.1-0.5-0.2
			c-0.1-0.1-0.2-0.3-0.2-0.5c0-0.2,0.1-0.4,0.2-0.5c0.1-0.1,0.3-0.2,0.5-0.2c0.2,0,0.4,0.1,0.5,0.2c0.1,0.1,0.2,0.3,0.2,0.5
			C29.2,80.3,29.2,80.5,29,80.6z"/>
		<path class="st4" d="M35.5,87.8c-0.5,0.5-1.1,0.7-1.9,0.7h-0.9v-1.2h0.8c0.9,0,1.4-0.5,1.4-1.4v-6.1l1.3-0.4V86
			C36.3,86.7,36,87.3,35.5,87.8z"/>
		<path class="st4" d="M37.5,88.5v-8.7l1.3-0.4v9.1H37.5z"/>
		<path class="st4" d="M51.8,87.8c-0.5,0.4-1.1,0.7-1.9,0.7h-5c-0.8,0-1.4-0.2-1.8-0.7c-0.5-0.4-0.7-1-0.7-1.8v-1.4l1.3-1.4v2.6
			c0,0.9,0.5,1.4,1.4,1.4h4.8c0.9,0,1.4-0.5,1.4-1.4v-3.5l1.3-0.4v3.9C52.6,86.8,52.3,87.4,51.8,87.8z M47,82.8
			c-0.1,0.1-0.3,0.2-0.5,0.2c-0.2,0-0.4-0.1-0.5-0.2c-0.1-0.1-0.2-0.3-0.2-0.5c0-0.2,0.1-0.4,0.2-0.5c0.1-0.1,0.3-0.2,0.5-0.2
			c0.2,0,0.4,0.1,0.5,0.2c0.1,0.1,0.2,0.3,0.2,0.5C47.2,82.5,47.2,82.7,47,82.8z M48.9,82.8c-0.1,0.1-0.3,0.2-0.5,0.2
			c-0.2,0-0.4-0.1-0.5-0.2c-0.1-0.1-0.2-0.3-0.2-0.5c0-0.2,0.1-0.4,0.2-0.5c0.1-0.1,0.3-0.2,0.5-0.2c0.2,0,0.4,0.1,0.5,0.2
			c0.1,0.1,0.2,0.3,0.2,0.5C49.1,82.5,49.1,82.7,48.9,82.8z"/>
		<path class="st4" d="M55.6,88.5c-0.6,0-1.1-0.2-1.4-0.5c-0.3-0.3-0.5-0.8-0.5-1.3v-6.9l1.3-0.4v7.3c0,0.5,0.2,0.7,0.7,0.7h1.3v1.2
			H55.6z"/>
		<path class="st4" d="M63.6,87.5c-0.5,0.6-1.2,1-2.2,1c-0.8,0-1.5-0.3-2-0.8c-0.5,0.5-1.1,0.8-2.1,0.8h-0.6v-1.2h0.6
			c0.9,0,1.4-0.5,1.4-1.4v-0.5c0-0.8,0.2-1.5,0.6-2.1c0.5-0.6,1.2-0.9,2.2-0.9c1,0,1.7,0.3,2.2,0.9c0.4,0.5,0.6,1.2,0.6,2.1
			C64.2,86.3,64,87,63.6,87.5z M61.5,83.6c-0.9,0-1.4,0.6-1.4,1.9c0,1.3,0.5,1.9,1.4,1.9c0.9,0,1.4-0.6,1.4-1.9
			C62.9,84.2,62.4,83.6,61.5,83.6z"/>
		<path class="st4" d="M65.4,88.5l0.8-1.2h3.5v-2.7c0-0.9-0.5-1.4-1.5-1.4c-0.8,0-1.4,0.4-1.9,1.2V83c0.6-0.6,1.3-0.8,1.9-0.8
			c0.8,0,1.5,0.2,2,0.7c0.5,0.4,0.8,1,0.8,1.8v2.8H73v1.2H65.4z"/>
		<path class="st4" d="M72.6,88.5v-1.2H79v-0.5c0-1.1-0.1-1.9-0.3-2.3c-0.3-0.8-0.9-1.2-1.9-1.2c-0.8,0-1.5,0.4-2.2,1.1l-1-0.9
			c1-0.9,2-1.4,3.1-1.4c1.4,0,2.4,0.5,3,1.6c0.4,0.7,0.6,1.8,0.6,3.2v0.5h1.8v1.2H72.6z M76.8,80.9c-0.2,0-0.4-0.1-0.5-0.2
			c-0.1-0.1-0.2-0.3-0.2-0.5c0-0.2,0.1-0.4,0.2-0.5c0.1-0.1,0.3-0.2,0.5-0.2c0.2,0,0.4,0.1,0.5,0.2c0.1,0.1,0.2,0.3,0.2,0.5
			c0,0.2-0.1,0.4-0.2,0.5C77.2,80.8,77,80.9,76.8,80.9z"/>
		<path class="st4" d="M86.9,88.5c-0.8,0-1.5-0.3-2-0.8c-0.5,0.5-1.1,0.8-2,0.8h-1.1v-1.2h1.1c0.9,0,1.4-0.5,1.4-1.4v-6.1l1.3-0.4
			v6.6c0,0.9,0.5,1.4,1.4,1.4h0.8v1.2H86.9z"/>
		<path class="st4" d="M90.3,87.8c-0.5,0.5-1.1,0.7-1.9,0.7h-0.9v-1.2h0.8c0.9,0,1.4-0.5,1.4-1.4v-6.1l1.3-0.4V86
			C91,86.7,90.8,87.3,90.3,87.8z"/>
	</g>
</g>
</svg>
