<?xml version="1.0" encoding="utf-8"?>
<!-- Generator: Adobe Illustrator 25.2.3, SVG Export Plug-In . SVG Version: 6.00 Build 0)  -->
<svg version="1.1" id="Layer_1" xmlns="http://www.w3.org/2000/svg" xmlns:xlink="http://www.w3.org/1999/xlink" x="0px" y="0px"
	 viewBox="0 0 300 300" style="enable-background:new 0 0 300 300;" xml:space="preserve">
<style type="text/css">
	.st0{fill:#caa738;}
	.st1{fill:#E9ECEF;}
	.st2{fill:#F5F5F5;}
	.st3{fill:#E6E6E6;}
	.st4{fill:#177354;}
	.st5{fill:#5ED297;}
	.st6{fill:#FD646F;}
</style>
<g id="Bg">
</g>
<g>
	<path class="st0" d="M249.6,36.9v247.6c0,3.1-2.5,5.6-5.6,5.6H56.1c-3.1,0-5.6-2.5-5.6-5.6V36.9c0-3.1,2.5-5.6,5.6-5.6h187.8
		C247,31.3,249.6,33.8,249.6,36.9z"/>
	<path class="st1" d="M59.5,59.1v218.1c0,2.2,1.8,4,4,4h113.8c1.5,0,2.9-0.6,4-1.7l43.5-43.5V56.1h-154l-1-6.9L62,54.4
		C60.4,55.5,59.5,57.2,59.5,59.1z"/>
	<path class="st2" d="M232.6,53.8v174.3l-33.8,12.4l-11.3,32.7H73c-3.1,0-5.6-2.5-5.6-5.6V53.8c0-3.1,2.5-5.6,5.6-5.6h154
		C230.1,48.2,232.6,50.7,232.6,53.8z"/>
	<path class="st3" d="M232.6,228.1l-45.1,45.1v-39.5c0-3.1,2.5-5.6,5.6-5.6H232.6z"/>
	<path class="st3" d="M206.8,48.2v11c0,7.8-6.3,14.1-14.1,14.1h-85.3c-7.8,0-14.1-6.3-14.1-14.1v-11H206.8z"/>
	<path class="st1" d="M93.2,31.3h113.5v16.9H93.2L93.2,31.3z"/>
	<path class="st4" d="M198.3,31.2v27.9c0,3.1-2.5,5.6-5.6,5.6h-85.3c-3.1,0-5.6-2.5-5.6-5.6V31.2l31.3,0c-0.4-1.8-0.6-3.7-0.4-5.6
		c0.8-8.4,7.7-15.2,16.1-15.7c10.2-0.7,18.7,7.4,18.7,17.4c0,1.4-0.2,2.7-0.5,4L198.3,31.2z"/>
	<path class="st5" d="M106.8,121.6c-1.1,0-2.1-0.4-2.9-1.2l-14.3-13.7c-1.7-1.6-1.7-4.3-0.1-6c1.6-1.7,4.3-1.7,6-0.1l11.1,10.7
		l17.4-19.8c1.5-1.8,4.2-1.9,6-0.4c1.8,1.5,1.9,4.2,0.4,6L110,120.1c-0.8,0.9-1.8,1.4-3,1.4C106.9,121.6,106.8,121.6,106.8,121.6
		L106.8,121.6z"/>
	<path class="st4" d="M203.9,110h-59.8c-2.3,0-4.2-1.9-4.2-4.2s1.9-4.2,4.2-4.2h59.8c2.3,0,4.2,1.9,4.2,4.2S206.2,110,203.9,110z"/>
	<path class="st5" d="M106.8,171.3c-1.1,0-2.1-0.4-2.9-1.2l-14.3-13.7c-1.7-1.6-1.7-4.3-0.1-6c1.6-1.7,4.3-1.7,6-0.1l11.1,10.7
		l17.4-19.7c1.5-1.8,4.2-1.9,6-0.4c1.8,1.5,1.9,4.2,0.4,6l-20.4,23c-0.8,0.9-1.8,1.4-3,1.4C106.9,171.3,106.8,171.3,106.8,171.3
		L106.8,171.3z"/>
	<g>
		<path class="st4" d="M203.9,159.6h-59.8c-2.3,0-4.2-1.9-4.2-4.2s1.9-4.2,4.2-4.2h59.8c2.3,0,4.2,1.9,4.2,4.2
			S206.2,159.6,203.9,159.6z"/>
		<path class="st4" d="M203.9,211H194c-2.3,0-4.2-1.9-4.2-4.2s1.9-4.2,4.2-4.2h9.9c2.3,0,4.2,1.9,4.2,4.2S206.2,211,203.9,211z"/>
		<path class="st4" d="M174.3,211h-30.2c-2.3,0-4.2-1.9-4.2-4.2s1.9-4.2,4.2-4.2h30.2c2.3,0,4.2,1.9,4.2,4.2S176.6,211,174.3,211z"
			/>
	</g>
	<path class="st6" d="M122.1,224H96.1c-2.3,0-4.2-1.9-4.2-4.2v-25.9c0-2.3,1.9-4.2,4.2-4.2h25.9c2.3,0,4.2,1.9,4.2,4.2v25.9
		C126.3,222.1,124.4,224,122.1,224z M100.4,215.5h17.5V198h-17.5V215.5z"/>
</g>
</svg>
